HIERARCHY
ROOT Hips
{
	OFFSET 0.000000 0.000000 0.000000 
	CHANNELS 6 Xposition Yposition Zposition Yrotation Zrotation Xrotation 
	JOINT Lumbar
	{
		OFFSET 0.000000 0.000000 0.000000 
		CHANNELS 3 Zrotation Xrotation Yrotation
		JOINT Neck
		{
			OFFSET 0.000000 0.445665 0.000000 
			CHANNELS 3 Zrotation Xrotation Yrotation
			End Site
			{
				OFFSET 0.000000 0.227535 0.000000 
			}
		}
		JOINT RightShoulder
		{
			OFFSET 0.019635 0.377685 0.194865 
			CHANNELS 3 Zrotation Xrotation Yrotation
			JOINT RightElbow
			{
				OFFSET 0.000000 -0.243375 0.000000 
				CHANNELS 2 Zrotation Yrotation
				JOINT RightWrist
				{
					OFFSET 0.000000 -0.264825 0.000000 
					CHANNELS 2 Zrotation Xrotation
					End Site
					{
						OFFSET 0.006600 -0.176220 0.000990 
					}
				}
			}
		}
		JOINT LeftShoulder
		{
			OFFSET 0.019635 0.377685 -0.194865 
			CHANNELS 3 Zrotation Xrotation Yrotation
			JOINT LeftElbow
			{
				OFFSET 0.000000 -0.243375 0.000000 
				CHANNELS 2 Zrotation Yrotation
				JOINT LeftWrist
				{
					OFFSET 0.000000 -0.264825 0.000000 
					CHANNELS 2 Zrotation Xrotation
					End Site
					{
						OFFSET 0.006600 -0.176220 -0.000990 
					}
				}
			}
		}
	}
	JOINT RightHip
	{
		OFFSET 0.052140 -0.069960 0.075570 
		CHANNELS 3 Zrotation Xrotation Yrotation
		JOINT RightKnee
		{
			OFFSET 0.000000 -0.402270 0.000000 
			CHANNELS 1 Zrotation
			JOINT RightAnkle
			{
				OFFSET 0.000000 -0.404085 0.000000 
				CHANNELS 3 Zrotation Xrotation Yrotation
				End Site
				{
					OFFSET 0.204105 -0.089430 0.008415 
				}
			}
		}
	}
	JOINT LeftHip
	{
		OFFSET 0.052140 -0.069960 -0.075570 
		CHANNELS 3 Zrotation Xrotation Yrotation
		JOINT LeftKnee
		{
			OFFSET 0.000000 -0.402270 0.000000 
			CHANNELS 1 Zrotation
			JOINT LeftAnkle
			{
				OFFSET 0.000000 -0.404085 0.000000 
				CHANNELS 3 Zrotation Xrotation Yrotation
				End Site
				{
					OFFSET 0.204105 -0.089430 -0.008415 
				}
			}
		}
	}
}
MOTION
Frames: 11
Frame Time: 0.02
0 0.95578 0 175.9212 0 -5.44008 7.26734 4.3134 -4.97322 -26.38699 2.71668 1.77933 27.59657 -16.58444 15.27018 14.63442 88.5873 -3.415 -7.26192 24.69238 9.84693 -21.22447 12.87164 -83.54158 -4.76875 4.67346 -5.14879 5.96258 -9.68498 -6.72289 -11.62876 -1.67192 -8.60523 -7.52725 6.55 13.48916 -1.74237 -4.86749 2.4663 7.11128
-0.00075 0.95567 -0.00181 175.73069 0 -5.44647 7.32214 4.38965 -4.87904 -26.59918 2.69348 1.82284 27.73182 -16.52472 15.22044 14.58248 88.5029 -3.34174 -7.21274 24.75357 9.90049 -20.71138 12.71499 -83.47706 -4.73673 4.59478 -5.19312 6.04417 -9.53867 -6.68865 -11.58753 -1.67839 -8.57963 -7.59889 6.62267 13.65111 -1.76254 -4.85129 2.4754 7.14366
-0.0015 0.95555 -0.00362 175.54127 0 -5.45291 7.37589 4.46547 -4.78528 -26.81054 2.6704 1.86636 27.86431 -16.46531 15.1682 14.52868 88.41707 -3.26816 -7.16238 24.81324 9.95437 -20.19882 12.55841 -83.41288 -4.70462 4.51612 -5.23666 6.12568 -9.39285 -6.65561 -11.54623 -1.68488 -8.55452 -7.6703 6.69553 13.81261 -1.78229 -4.83544 2.48419 7.1745
-0.00224 0.95544 -0.00542 175.35328 0 -5.45956 7.42695 4.5405 -4.69203 -27.02124 2.64714 1.91001 27.98998 -16.40594 15.11094 14.46843 88.32431 -3.19316 -7.10795 24.86893 10.00986 -19.68536 12.40161 -83.34914 -4.67213 4.43725 -5.2777 6.20714 -9.24716 -6.62657 -11.50442 -1.69149 -8.53076 -7.74112 6.76931 13.9765 -1.80202 -4.81975 2.49161 7.19793
-0.00304 0.95531 -0.00724 175.15642 0 -5.46501 7.49344 4.61992 -4.59576 -27.23609 2.62427 1.95253 28.15522 -16.34562 15.08681 14.44419 88.26781 -3.12635 -7.07647 24.94745 10.0566 -19.17906 12.24718 -83.28271 -4.64204 4.36006 -5.33229 6.28822 -9.10027 -6.57576 -11.46557 -1.69746 -8.49941 -7.81462 6.83755 14.13084 -1.82361 -4.80191 2.50602 7.25877
-0.0037 0.95521 -0.00904 174.97943 0 -5.47305 7.52643 4.68983 -4.50618 -27.44152 2.60099 1.9977 28.23428 -16.28787 14.98819 14.34255 88.13496 -3.04184 -6.99553 24.97646 10.12197 -18.65648 12.0871 -83.22227 -4.60661 4.27899 -5.35797 6.37048 -8.95643 -6.57147 -11.42034 -1.70477 -8.48444 -7.88269 6.91787 14.30309 -1.84009 -4.78949 2.50582 7.24166
-0.004 0.95515 -0.0108 174.84686 0 -5.48823 7.47113 4.73547 -4.43181 -27.63003 2.5729 2.04968 28.08911 -16.23222 14.71201 14.02684 87.77712 -2.9079 -6.77858 24.87487 10.24067 -18.08611 11.91294 -83.17523 -4.55736 4.18805 -5.30316 6.45458 -8.81447 -6.69656 -11.35695 -1.71598 -8.51329 -7.93447 7.03135 14.5505 -1.85222 -4.78503 2.46188 6.98938
-0.00416 0.95511 -0.01256 174.7363 0 -5.50598 7.3812 4.77104 -4.36483 -27.80796 2.54527 2.10474 27.85468 -16.18042 14.35598 13.63273 87.34431 -2.75604 -6.51132 24.7226 10.37765 -17.49889 11.73253 -83.13462 -4.50254 4.09295 -5.21928 6.54022 -8.6769 -6.86847 -11.28717 -1.72851 -8.55888 -7.98096 7.15718 14.81218 -1.85749 -4.78731 2.40366 6.66106
-0.00438 0.95506 -0.01432 174.62211 0 -5.52263 7.30426 4.81015 -4.29631 -27.98455 2.51951 2.15848 27.65141 -16.12953 14.0167 13.27422 86.95466 -2.61254 -6.26649 24.58872 10.50563 -16.92084 11.55383 -83.09325 -4.44952 3.99906 -5.149 6.62617 -8.54105 -7.01875 -11.22059 -1.7403 -8.59786 -8.03094 7.27759 15.05012 -1.85947 -4.79106 2.35424 6.38105
-0.00464 0.95502 -0.01606 174.4804 0 -5.53923 7.23883 4.85418 -4.2196 -28.18547 2.48405 2.21085 27.48612 -16.06576 13.75643 12.91572 86.5271 -2.4681 -6.0237 24.47227 10.63784 -16.33767 11.38017 -83.04338 -4.39937 3.90796 -5.07686 6.70782 -8.38845 -7.17108 -11.15274 -1.75268 -8.63296 -8.07683 7.39712 15.35827 -1.88818 -4.77573 2.29547 6.04595
-0.00476 0.95498 -0.01785 174.40206 0 -5.55627 7.1413 4.88484 -4.16238 -28.33522 2.47008 2.26809 27.22273 -16.03179 13.31699 12.53877 86.16017 -2.32141 -5.7645 24.31022 10.76391 -15.75966 11.19422 -83.01197 -4.3422 3.81016 -5.00197 6.79883 -8.27317 -7.3295 -11.08608 -1.76414 -8.67968 -8.12933 7.52147 15.52682 -1.85999 -4.8017 2.25227 5.80387
